<svg width="609" height="551" viewBox="0 0 609 551" fill="none" xmlns="http://www.w3.org/2000/svg">
<path fill-rule="evenodd" clip-rule="evenodd" d="M586.938 232.527L305.031 515.073L22 231.402C55.6338 106.727 169.288 15 304.318 15C439.755 15 553.686 107.279 586.938 232.527Z" fill="white"/>
<path fill-rule="evenodd" clip-rule="evenodd" d="M336.936 483.003L454.783 365.099C437.131 298.142 376.187 248.772 303.718 248.772C231.583 248.772 170.868 297.687 152.9 364.172L271.756 483.087C268.893 488.351 267.266 494.386 267.266 500.801C267.266 521.302 283.878 537.922 304.369 537.922C324.86 537.922 341.471 521.302 341.471 500.801C341.471 494.352 339.827 488.288 336.936 483.003Z" fill="#207EFD"/>
<path fill-rule="evenodd" clip-rule="evenodd" d="M303 327C307.208 327 311.221 326.161 314.88 324.642L379.063 388.857C377.73 392.315 377 396.072 377 400C377 404.22 377.843 408.242 379.37 411.909L303.288 488.028L227.338 412.041C228.415 408.892 229 405.514 229 402C229 397.443 228.017 393.115 226.25 389.217L290.89 324.546C294.611 326.126 298.703 327 303 327Z" fill="white"/>
<ellipse cx="303.913" cy="407.674" rx="15.622" ry="15.6297" fill="#207EFD"/>
<rect width="11.7194" height="11.7194" transform="matrix(0.706932 -0.707281 0.706932 0.707281 295 302.289)" fill="white"/>
<rect width="11.7194" height="11.7194" transform="matrix(0.706932 -0.707281 0.706932 0.707281 391.136 400.333)" fill="white"/>
<rect width="11.7194" height="11.7194" transform="matrix(0.706932 -0.707281 0.706932 0.707281 198.464 400.333)" fill="white"/>
<rect x="295" y="406" width="18.2257" height="3.90743" fill="white"/>
<path d="M295 488H312V496.533H295V488Z" fill="white"/>
<path d="M303.5 504L295 496.533L312 496.533L303.5 504Z" fill="white"/>
<circle cx="204" cy="374" r="6" fill="#FD002E"/>
<circle cx="304" cy="396" r="6" fill="#FD002E"/>
<circle cx="258" cy="275" r="6" fill="#FD002E"/>
<circle cx="352" cy="311" r="6" fill="#FD002E"/>
<circle cx="304" cy="511" r="6" fill="#FD002E"/>
<circle cx="399" cy="359" r="6" fill="#FD002E"/>
<circle cx="158" cy="204" r="6" fill="#FD002E"/>
<circle cx="447" cy="204" r="6" fill="#FD002E"/>
<circle cx="304" cy="158" r="6" fill="#FD002E"/>
</svg>
